# File created by Blade
# Date/Time:  Wed Jan 21 17:41:14 2015
# Frame Rate: 120.000 fps
#------------------------------------------------------
:FULLY-SPECIFIED
:DEGREES
692
root 15.033377 22.238646 -25.793660 7.067271 80.682599 -61.511062
Spine 38.097105 2.219428 4.406852
Head 20.196108 0.637961 -12.683732
LeftShoulder 4.401854 -41.285169 14.822412
LeftArm 60.844098 7.870370 -43.153515
LeftForeArm 6.592828 0.000000 11.707524
LeftHand 5.858450 0.000000 69.278125
LeftHandThumb1 -26.253704 0.000000 33.147579
RightShoulder 10.268662 5.667716 -29.273847
RightArm 78.037253 23.746900 44.055044
RightForeArm -20.738545 -0.000000 20.299888
RightHand -3.853705 -0.000000 -68.288852
RightHandThumb1 -24.326973 -0.000000 -32.862282
LeftUpLeg -12.328068 3.168791 -6.249049
LeftLeg 9.670271 -0.000000 -0.000000
LeftFoot -18.037246 29.124491 -12.062611
LeftToeBase -27.094355 -0.000000 0.000000
RightUpLeg -54.239762 -4.439273 -2.778266
RightLeg 80.081015 -0.000000 -0.000000
RightFoot -17.861371 -38.165535 5.638803
RightToeBase 4.714436 -0.000000 -0.000000
693
root 15.047941 22.193182 -25.747393 10.279734 81.276109 -58.434756
Spine 37.523682 1.901531 3.719583
Head 20.482967 1.204215 -12.033802
LeftShoulder 4.486564 -41.174693 15.189505
LeftArm 60.634219 8.137427 -43.374466
LeftForeArm 6.699898 0.000000 11.776782
LeftHand 5.988023 0.000000 68.968455
LeftHandThumb1 -26.253704 0.000000 33.147579
RightShoulder 10.384855 5.514929 -28.883438
RightArm 77.752585 23.466013 44.265112
RightForeArm -20.875524 -0.000000 20.645273
RightHand -3.894714 -0.000000 -68.622062
RightHandThumb1 -24.326973 -0.000000 -32.862282
LeftUpLeg -12.466416 3.040482 -6.663551
LeftLeg 9.723287 -0.000000 -0.000000
LeftFoot -17.701503 28.832114 -11.977123
LeftToeBase -27.459558 -0.000000 0.000000
RightUpLeg -51.286281 -3.926641 -3.579026
RightLeg 76.061831 -0.000000 -0.000000
RightFoot -17.333668 -38.116712 5.916519
RightToeBase 4.229403 -0.000000 -0.000000
694
root 15.057721 22.147963 -25.694660 13.374492 81.814364 -55.554277
Spine 36.846554 1.658152 3.179016
Head 20.861581 1.813017 -11.345671
LeftShoulder 4.719893 -40.836497 15.226085
LeftArm 60.732086 8.506997 -42.886097
LeftForeArm 6.377026 0.000000 11.916496
LeftHand 5.736938 -0.000000 68.872298
LeftHandThumb1 -26.253704 0.000000 33.147579
RightShoulder 10.448926 5.434564 -28.522047
RightArm 77.381435 23.075249 44.468561
RightForeArm -21.012402 -0.000000 20.982232
RightHand -3.865169 -0.000000 -68.953506
RightHandThumb1 -24.326973 -0.000000 -32.862282
LeftUpLeg -12.683148 2.944908 -6.982588
LeftLeg 9.789824 -0.000000 -0.000000
LeftFoot -17.404732 28.489111 -11.867174
LeftToeBase -27.970821 -0.000000 0.000000
RightUpLeg -48.421813 -3.409997 -4.203222
RightLeg 71.877011 -0.000000 -0.000000
RightFoot -16.699948 -37.820482 5.832993
RightToeBase 4.721467 -0.000000 -0.000000
695
root 15.064305 22.096353 -25.638265 16.835945 82.323999 -52.251374
Spine 36.253464 1.512333 2.691108
Head 21.203970 2.292748 -10.611189
LeftShoulder 5.099958 -40.890493 15.273520
LeftArm 60.495011 8.885855 -42.931529
LeftForeArm 6.505227 -0.000000 11.971252
LeftHand 5.679589 -0.000000 68.819689
LeftHandThumb1 -26.253704 0.000000 33.147579
RightShoulder 10.344378 5.208103 -28.171633
RightArm 77.211602 22.743388 44.799075
RightForeArm -21.238133 -0.000000 21.275139
RightHand -3.936683 -0.000000 -69.133099
RightHandThumb1 -24.326973 -0.000000 -32.862282
LeftUpLeg -12.842455 2.827870 -7.290909
LeftLeg 9.900123 -0.000000 -0.000000
LeftFoot -17.286774 28.145155 -11.864164
LeftToeBase -28.146971 -0.000000 0.000000
RightUpLeg -45.583635 -2.834226 -4.762055
RightLeg 67.588711 -0.000000 -0.000000
RightFoot -15.946010 -37.625175 5.800769
RightToeBase 4.497681 -0.000000 -0.000000
696
root 15.068963 22.038385 -25.579454 20.593521 82.792566 -48.599993
Spine 35.720228 1.346294 2.193677
Head 21.474583 2.821210 -9.797311
LeftShoulder 5.417145 -40.592793 15.331211
LeftArm 60.552709 9.039397 -42.805786
LeftForeArm 6.532049 0.000000 11.996433
LeftHand 5.490666 -0.000000 69.048845
LeftHandThumb1 -26.253704 0.000000 33.147579
RightShoulder 10.235338 4.910932 -27.798540
RightArm 77.159923 22.474884 45.008881
RightForeArm -21.368386 -0.000000 21.430591
RightHand -3.879230 -0.000000 -69.283313
RightHandThumb1 -24.326973 -0.000000 -32.862282
LeftUpLeg -12.947608 2.712730 -7.583831
LeftLeg 10.025728 -0.000000 -0.000000
LeftFoot -17.213664 27.795037 -11.920803
LeftToeBase -28.472195 -0.000000 0.000000
RightUpLeg -42.751476 -2.225607 -5.249197
RightLeg 63.212514 -0.000000 -0.000000
RightFoot -15.208715 -37.453141 5.935955
RightToeBase 3.575271 -0.000000 -0.000000
697
root 15.069038 21.977824 -25.515575 24.370385 83.208441 -44.916427
Spine 35.207697 1.196908 1.794282
Head 21.721555 3.313506 -9.169084
LeftShoulder 5.791700 -40.497801 15.288688
LeftArm 60.418117 9.354143 -42.595638
LeftForeArm 6.415877 -0.000000 12.086717
LeftHand 5.489573 -0.000000 69.011535
LeftHandThumb1 -26.253704 0.000000 33.147579
RightShoulder 10.076603 4.786647 -27.537520
RightArm 77.120100 22.046945 45.410996
RightForeArm -21.596300 0.000000 21.477757
RightHand -3.880851 -0.000000 -69.548513
RightHandThumb1 -24.326973 -0.000000 -32.862282
LeftUpLeg -13.040677 2.654984 -7.835867
LeftLeg 10.156384 -0.000000 -0.000000
LeftFoot -16.833636 27.472614 -11.712549
LeftToeBase -29.499522 -0.000000 0.000000
RightUpLeg -39.959979 -1.462214 -5.628494
RightLeg 58.750016 -0.000000 -0.000000
RightFoot -14.123208 -37.119737 5.896106
RightToeBase 3.633984 -0.000000 -0.000000
698
root 15.066872 21.913394 -25.443203 28.114301 83.565407 -41.227046
Spine 34.736781 1.119330 1.396286
Head 21.982179 3.114470 -8.675789
LeftShoulder 6.179300 -40.358119 15.275808
LeftArm 60.324168 9.616729 -42.429917
LeftForeArm 6.359079 0.000000 12.152994
LeftHand 5.450131 -0.000000 68.976208
LeftHandThumb1 -26.253704 0.000000 33.147579
RightShoulder 9.899756 4.589873 -27.211705
RightArm 77.147522 21.672806 45.680664
RightForeArm -21.735167 -0.000000 21.426180
RightHand -3.891022 0.000000 -69.719054
RightHandThumb1 -24.326973 -0.000000 -32.862282
LeftUpLeg -13.083804 2.588446 -8.030879
LeftLeg 10.298220 -0.000000 -0.000000
LeftFoot -17.071356 27.194849 -11.985821
LeftToeBase -29.678058 -0.000000 0.000000
RightUpLeg -37.225132 -0.696185 -5.879136
RightLeg 54.322654 -0.000000 -0.000000
RightFoot -12.565662 -36.407060 5.562379
RightToeBase 3.651525 -0.000000 -0.000000
699
root 15.059872 21.848996 -25.364661 31.842444 83.878004 -37.540335
Spine 34.271891 1.104530 1.025555
Head 22.271004 2.905864 -8.029726
LeftShoulder 6.672890 -40.212434 15.218394
LeftArm 60.176960 9.789585 -42.333540
LeftForeArm 6.356798 0.000000 12.245703
LeftHand 5.465262 0.000000 68.965849
LeftHandThumb1 -26.253704 0.000000 33.147579
RightShoulder 9.723511 4.328596 -26.868880
RightArm 77.215229 21.354130 45.860082
RightForeArm -21.799342 -0.000000 21.265035
RightHand -3.881192 -0.000000 -69.894207
RightHandThumb1 -24.326973 -0.000000 -32.862282
LeftUpLeg -13.143433 2.579548 -8.193926
LeftLeg 10.489597 -0.000000 -0.000000
LeftFoot -17.343319 26.848505 -12.260299
LeftToeBase -29.441578 -0.000000 0.000000
RightUpLeg -34.590224 0.121651 -6.026560
RightLeg 49.962112 -0.000000 -0.000000
RightFoot -10.813963 -35.408835 5.309210
RightToeBase 3.390699 -0.000000 -0.000000
700
root 15.051278 21.783518 -25.287736 35.704212 84.185482 -33.678434
Spine 33.858213 1.021988 0.704129
Head 22.510145 2.562301 -7.692825
LeftShoulder 7.146444 -40.082168 15.132936
LeftArm 59.972737 9.930488 -42.267961
LeftForeArm 6.420724 0.000000 12.349165
LeftHand 5.511831 -0.000000 68.898118
LeftHandThumb1 -26.253704 0.000000 33.147579
RightShoulder 9.569734 4.203460 -26.625707
RightArm 77.245815 20.960047 46.133519
RightForeArm -21.817675 -0.000000 21.034623
RightHand -3.757830 0.000000 -70.064027
RightHandThumb1 -24.326973 -0.000000 -32.862282
LeftUpLeg -13.127592 2.546320 -8.327787
LeftLeg 10.620364 -0.000000 -0.000000
LeftFoot -17.658569 26.540318 -12.507528
LeftToeBase -29.029604 -0.000000 0.000000
RightUpLeg -32.028747 0.937861 -6.087209
RightLeg 45.727563 -0.000000 -0.000000
RightFoot -9.021635 -34.042843 5.389065
RightToeBase 2.537847 -0.000000 -0.000000
